/* XPM */
static char *Wall_South_DEBUG[] = {
/* columns rows colors chars-per-pixel */
"16 16 9 1 ",
"  c black",
". c #D30000",
"X c #D60000",
"o c #E60000",
"O c #EC0000",
"+ c #F20000",
"@ c #F60000",
"# c #FA0000",
"$ c red",
/* pixels */
"$$$$$$$$$$$$$$$$",
"$$$$$$$$$$$$$$$$",
"$$$$$$$$$$$$$$$$",
"$$$$$$$$$$$$$$$$",
"$$$$$o    #$$$$$",
"$$$$$  #+  $$$$$",
"$$$$O $$$$$$$$$$",
"$$$$#  O$$$$$$$$",
"$$$$$O    @$$$$$",
"$$$$$$$$O  $$$$$",
"$$$$$$$$$X $$$$$",
"$$$$O o#O  $$$$$",
"$$$$$.    @$$$$$",
"$$$$$$$$$$$$$$$$",
"$$$$$$$$$$$$$$$$",
"$$$$$$$$$$$$$$$$"
};
