/* XPM */
static char *Wall_North_DEBUG[] = {
/* columns rows colors chars-per-pixel */
"16 16 12 1 ",
"  c black",
". c #A200A3",
"X c #A800AA",
"o c #AD00AF",
"O c #BC00BE",
"+ c #D200D4",
"@ c #D400D6",
"# c #EE00EF",
"$ c #F000F2",
"% c #F200F4",
"& c #F500F6",
"* c #FD00FF",
/* pixels */
"****************",
"****************",
"****************",
"*****  &**+ ****",
"*****   **+ ****",
"***** O %*+ ****",
"***** @. *+ ****",
"***** @# $+ ****",
"***** @*X + ****",
"***** @*$ O ****",
"***** @**o  ****",
"***** @**%  ****",
"****************",
"****************",
"****************",
"****************"
};
