/* XPM */
static char *Wall_West_DEBUG[] = {
/* columns rows colors chars-per-pixel */
"16 16 22 1 ",
"  c black",
". c #008200",
"X c #00A000",
"o c #00A600",
"O c #00AE00",
"+ c #00B600",
"@ c #00B800",
"# c #00C100",
"$ c #00C700",
"% c #00CB00",
"& c #00CE00",
"* c #00D000",
"= c #00D500",
"- c #00DC00",
"; c #00E300",
": c #00E700",
"> c #00E800",
", c #00EE00",
"< c #00F300",
"1 c #00F400",
"2 c #00F900",
"3 c green",
/* pixels */
"3333333333333333",
"3333333333333333",
"3333333333333333",
"3333333333333333",
"3333333333333333",
"33  333  333  33",
"33; 33<  331 <33",
"333 :3=  :3= 333",
"333 $3 &@ 3 o333",
"333  3 ,- 3 *333",
"333- 1 32 1 <333",
"3333 # 33 # 3333",
"3333. $33O X3333",
"3333+ >33= %3333",
"3333333333333333",
"3333333333333333"
};
