/* XPM */
static char *Wall_D_16[] = {
/* columns rows colors chars-per-pixel */
"16 16 3 1 ",
"  c #181425",
". c #262B44",
"X c #3A4466",
/* pixels */
" XXXX .....XXX  ",
"X....X........X ",
"......X........ ",
"....... ....... ",
".......  XXXX   ",
" ...... X....X  ",
"  .... X......X ",
"  XXX  ........ ",
" X...X  ......  ",
" .....XX ... XX ",
" .......X  XX..X",
"X ....... X.....",
". ......  ......",
". ....    ......",
"   ..  XXX .....",
"      X...X     "
};
